<?xml version="1.0" encoding="UTF-8" standalone="no"?>
<!-- Created with Inkscape (http://www.inkscape.org/) -->

<svg
   width="750"
   height="750"
   viewBox="0 0 750 750"
   version="1.1"
   id="svg1"
   inkscape:version="1.3.2 (091e20e, 2023-11-25)"
   sodipodi:docname="background.svg"
   inkscape:export-filename="background.png"
   inkscape:export-xdpi="96"
   inkscape:export-ydpi="96"
   xmlns:inkscape="http://www.inkscape.org/namespaces/inkscape"
   xmlns:sodipodi="http://sodipodi.sourceforge.net/DTD/sodipodi-0.dtd"
   xmlns:xlink="http://www.w3.org/1999/xlink"
   xmlns="http://www.w3.org/2000/svg"
   xmlns:svg="http://www.w3.org/2000/svg">
  <sodipodi:namedview
     id="namedview1"
     pagecolor="#ffffff"
     bordercolor="#000000"
     borderopacity="0.25"
     inkscape:showpageshadow="2"
     inkscape:pageopacity="0.0"
     inkscape:pagecheckerboard="0"
     inkscape:deskcolor="#d1d1d1"
     inkscape:document-units="px"
     inkscape:zoom="0.89616749"
     inkscape:cx="386.64647"
     inkscape:cy="353.72852"
     inkscape:window-width="2016"
     inkscape:window-height="1279"
     inkscape:window-x="0"
     inkscape:window-y="25"
     inkscape:window-maximized="0"
     inkscape:current-layer="layer1" />
  <defs
     id="defs1">
    <linearGradient
       id="linearGradient56"
       inkscape:collect="always">
      <stop
         style="stop-color:#14146c;stop-opacity:1;"
         offset="0.36626509"
         id="stop57" />
      <stop
         style="stop-color:#12126e;stop-opacity:0.88593155;"
         offset="1"
         id="stop58" />
    </linearGradient>
    <linearGradient
       id="linearGradient54"
       inkscape:collect="always">
      <stop
         style="stop-color:#fcf6f6;stop-opacity:1;"
         offset="0"
         id="stop55" />
      <stop
         style="stop-color:#fff3f3;stop-opacity:0;"
         offset="0.86506027"
         id="stop56" />
    </linearGradient>
    <filter
       inkscape:collect="always"
       style="color-interpolation-filters:sRGB"
       id="filter2"
       x="-0.0010758935"
       y="-0.0010841379"
       width="1.0021518"
       height="1.0021683">
      <feGaussianBlur
         inkscape:collect="always"
         stdDeviation="0.33593936"
         id="feGaussianBlur2" />
    </filter>
    <radialGradient
       inkscape:collect="always"
       xlink:href="#linearGradient54"
       id="radialGradient56"
       cx="1486.9494"
       cy="430.28509"
       fx="1486.9494"
       fy="430.28509"
       r="135.49506"
       gradientTransform="matrix(1,0,0,0.98813856,0,5.1038026)"
       gradientUnits="userSpaceOnUse" />
    <radialGradient
       inkscape:collect="always"
       xlink:href="#linearGradient54"
       id="radialGradient56-9"
       cx="1486.9493"
       cy="430.2851"
       fx="1486.9493"
       fy="430.2851"
       r="135.49506"
       gradientTransform="matrix(1,0,0,0.98813856,0,5.1038026)"
       gradientUnits="userSpaceOnUse" />
    <radialGradient
       inkscape:collect="always"
       xlink:href="#linearGradient54"
       id="radialGradient56-93"
       cx="1486.9493"
       cy="430.2851"
       fx="1486.9493"
       fy="430.2851"
       r="135.49506"
       gradientTransform="matrix(1,0,0,0.98813856,0,5.1038026)"
       gradientUnits="userSpaceOnUse" />
    <radialGradient
       inkscape:collect="always"
       xlink:href="#linearGradient54"
       id="radialGradient56-0"
       cx="1486.9493"
       cy="430.2851"
       fx="1486.9493"
       fy="430.2851"
       r="135.49506"
       gradientTransform="matrix(1,0,0,0.98813856,0,5.1038026)"
       gradientUnits="userSpaceOnUse" />
    <radialGradient
       inkscape:collect="always"
       xlink:href="#linearGradient54"
       id="radialGradient56-7"
       cx="1486.9493"
       cy="430.2851"
       fx="1486.9493"
       fy="430.2851"
       r="135.49506"
       gradientTransform="matrix(1,0,0,0.98813856,0,5.1038026)"
       gradientUnits="userSpaceOnUse" />
    <radialGradient
       inkscape:collect="always"
       xlink:href="#linearGradient54"
       id="radialGradient56-4"
       cx="1486.9493"
       cy="430.2851"
       fx="1486.9493"
       fy="430.2851"
       r="135.49506"
       gradientTransform="matrix(1,0,0,0.98813856,0,5.1038026)"
       gradientUnits="userSpaceOnUse" />
    <radialGradient
       inkscape:collect="always"
       xlink:href="#linearGradient54"
       id="radialGradient56-41"
       cx="1486.9493"
       cy="430.2851"
       fx="1486.9493"
       fy="430.2851"
       r="135.49506"
       gradientTransform="matrix(1,0,0,0.98813856,0,5.1038026)"
       gradientUnits="userSpaceOnUse" />
    <radialGradient
       inkscape:collect="always"
       xlink:href="#linearGradient54"
       id="radialGradient56-3"
       cx="1486.9493"
       cy="430.2851"
       fx="1486.9493"
       fy="430.2851"
       r="135.49506"
       gradientTransform="matrix(1,0,0,0.98813856,0,5.1038026)"
       gradientUnits="userSpaceOnUse" />
    <radialGradient
       inkscape:collect="always"
       xlink:href="#linearGradient54"
       id="radialGradient56-40"
       cx="1486.9493"
       cy="430.2851"
       fx="1486.9493"
       fy="430.2851"
       r="135.49506"
       gradientTransform="matrix(1,0,0,0.98813856,0,5.1038026)"
       gradientUnits="userSpaceOnUse" />
    <radialGradient
       inkscape:collect="always"
       xlink:href="#linearGradient54"
       id="radialGradient56-5"
       cx="1486.9493"
       cy="430.2851"
       fx="1486.9493"
       fy="430.2851"
       r="135.49506"
       gradientTransform="matrix(1,0,0,0.98813856,0,5.1038026)"
       gradientUnits="userSpaceOnUse" />
    <radialGradient
       inkscape:collect="always"
       xlink:href="#linearGradient54"
       id="radialGradient56-8"
       cx="1486.9493"
       cy="430.2851"
       fx="1486.9493"
       fy="430.2851"
       r="135.49506"
       gradientTransform="matrix(1,0,0,0.98813856,0,5.1038026)"
       gradientUnits="userSpaceOnUse" />
    <radialGradient
       inkscape:collect="always"
       xlink:href="#linearGradient56"
       id="radialGradient58"
       cx="385.25552"
       cy="380.95312"
       fx="385.25552"
       fy="380.95312"
       r="375.49692"
       gradientTransform="matrix(1,0,0,0.99241171,0,2.8907829)"
       gradientUnits="userSpaceOnUse"
       spreadMethod="pad" />
  </defs>
  <g
     inkscape:label="Layer 1"
     inkscape:groupmode="layer"
     id="layer1">
    <rect
       style="fill:url(#radialGradient58);fill-rule:nonzero;filter:url(#filter2)"
       id="rect1"
       width="749.38129"
       height="743.68256"
       x="10.564842"
       y="9.1118526"
       transform="matrix(1.2705869,0,0,1.3297031,-117.28719,-212.90235)" />
    <path
       sodipodi:type="star"
       style="opacity:0.9;fill:url(#radialGradient56-8)"
       id="path15-69-32-3"
       inkscape:flatsided="false"
       sodipodi:sides="5"
       sodipodi:cx="1481.6664"
       sodipodi:cy="421.70505"
       sodipodi:r1="143.49004"
       sodipodi:r2="71.74501"
       sodipodi:arg1="1.4513674"
       sodipodi:arg2="2.0796859"
       inkscape:rounded="0"
       inkscape:randomized="0"
       d="m 1498.7625,564.17298 -52.0508,-79.81402 -95.2574,-2.36949 59.8231,-74.16722 -27.1826,-91.32732 89.0235,33.97616 78.4576,-54.07389 -4.8035,95.16564 75.672,57.90781 -91.9922,24.83945 z"
       inkscape:transform-center-x="-0.21170894"
       inkscape:transform-center-y="0.33982802"
       transform="matrix(0.04007772,0,0,0.03960765,349.83679,218.2604)" />
    <path
       sodipodi:type="star"
       style="opacity:0.9;fill:url(#radialGradient56-5)"
       id="path15-69-32-86"
       inkscape:flatsided="false"
       sodipodi:sides="5"
       sodipodi:cx="1481.6664"
       sodipodi:cy="421.70505"
       sodipodi:r1="143.49004"
       sodipodi:r2="71.74501"
       sodipodi:arg1="1.4513674"
       sodipodi:arg2="2.0796859"
       inkscape:rounded="0"
       inkscape:randomized="0"
       d="m 1498.7625,564.17298 -52.0508,-79.81402 -95.2574,-2.36949 59.8231,-74.16722 -27.1826,-91.32732 89.0235,33.97616 78.4576,-54.07389 -4.8035,95.16564 75.672,57.90781 -91.9922,24.83945 z"
       inkscape:transform-center-x="-0.21170894"
       inkscape:transform-center-y="0.33982802"
       transform="matrix(0.04007772,0,0,0.03960765,89.83679,266.2604)" />
    <path
       sodipodi:type="star"
       style="opacity:0.9;fill:url(#radialGradient56-40)"
       id="path15-69-32-05"
       inkscape:flatsided="false"
       sodipodi:sides="5"
       sodipodi:cx="1481.6664"
       sodipodi:cy="421.70505"
       sodipodi:r1="143.49004"
       sodipodi:r2="71.74501"
       sodipodi:arg1="1.4513674"
       sodipodi:arg2="2.0796859"
       inkscape:rounded="0"
       inkscape:randomized="0"
       d="m 1498.7625,564.17298 -52.0508,-79.81402 -95.2574,-2.36949 59.8231,-74.16722 -27.1826,-91.32732 89.0235,33.97616 78.4576,-54.07389 -4.8035,95.16564 75.672,57.90781 -91.9922,24.83945 z"
       inkscape:transform-center-x="-0.21170894"
       inkscape:transform-center-y="0.33982802"
       transform="matrix(0.04007772,0,0,0.03960765,57.83679,164.2604)" />
    <path
       sodipodi:type="star"
       style="opacity:0.9;fill:url(#radialGradient56-3)"
       id="path15-69-32-25"
       inkscape:flatsided="false"
       sodipodi:sides="5"
       sodipodi:cx="1481.6664"
       sodipodi:cy="421.70505"
       sodipodi:r1="143.49004"
       sodipodi:r2="71.74501"
       sodipodi:arg1="1.4513674"
       sodipodi:arg2="2.0796859"
       inkscape:rounded="0"
       inkscape:randomized="0"
       d="m 1498.7625,564.17298 -52.0508,-79.81402 -95.2574,-2.36949 59.8231,-74.16722 -27.1826,-91.32732 89.0235,33.97616 78.4576,-54.07389 -4.8035,95.16564 75.672,57.90781 -91.9922,24.83945 z"
       inkscape:transform-center-x="-0.21170894"
       inkscape:transform-center-y="0.33982802"
       transform="matrix(0.04007772,0,0,0.03960765,72.83679,202.2604)" />
    <path
       sodipodi:type="star"
       style="opacity:0.9;fill:url(#radialGradient56-4)"
       id="path15-69-32-2"
       inkscape:flatsided="false"
       sodipodi:sides="5"
       sodipodi:cx="1481.6664"
       sodipodi:cy="421.70505"
       sodipodi:r1="143.49004"
       sodipodi:r2="71.74501"
       sodipodi:arg1="1.4513674"
       sodipodi:arg2="2.0796859"
       inkscape:rounded="0"
       inkscape:randomized="0"
       d="m 1498.7625,564.17298 -52.0508,-79.81402 -95.2574,-2.36949 59.8231,-74.16722 -27.1826,-91.32732 89.0235,33.97616 78.4576,-54.07389 -4.8035,95.16564 75.672,57.90781 -91.9922,24.83945 z"
       inkscape:transform-center-x="-0.21170894"
       inkscape:transform-center-y="0.33982802"
       transform="matrix(0.04007772,0,0,0.03960765,165.83679,151.2604)" />
    <path
       sodipodi:type="star"
       style="opacity:0.9;fill:url(#radialGradient56-7)"
       id="path15-69-32-4"
       inkscape:flatsided="false"
       sodipodi:sides="5"
       sodipodi:cx="1481.6664"
       sodipodi:cy="421.70505"
       sodipodi:r1="143.49004"
       sodipodi:r2="71.74501"
       sodipodi:arg1="1.4513674"
       sodipodi:arg2="2.0796859"
       inkscape:rounded="0"
       inkscape:randomized="0"
       d="m 1498.7625,564.17298 -52.0508,-79.81402 -95.2574,-2.36949 59.8231,-74.16722 -27.1826,-91.32732 89.0235,33.97616 78.4576,-54.07389 -4.8035,95.16564 75.672,57.90781 -91.9922,24.83945 z"
       inkscape:transform-center-x="-0.21170894"
       inkscape:transform-center-y="0.33982802"
       transform="matrix(0.04007772,0,0,0.03960765,524.83679,151.2604)" />
    <path
       sodipodi:type="star"
       style="opacity:0.9;fill:url(#radialGradient56-0)"
       id="path15-69-32-0"
       inkscape:flatsided="false"
       sodipodi:sides="5"
       sodipodi:cx="1481.6664"
       sodipodi:cy="421.70505"
       sodipodi:r1="143.49004"
       sodipodi:r2="71.74501"
       sodipodi:arg1="1.4513674"
       sodipodi:arg2="2.0796859"
       inkscape:rounded="0"
       inkscape:randomized="0"
       d="m 1498.7625,564.17298 -52.0508,-79.81402 -95.2574,-2.36949 59.8231,-74.16722 -27.1826,-91.32732 89.0235,33.97616 78.4576,-54.07389 -4.8035,95.16564 75.672,57.90781 -91.9922,24.83945 z"
       inkscape:transform-center-x="-0.21170894"
       inkscape:transform-center-y="0.33982802"
       transform="matrix(0.04007772,0,0,0.03960765,486.83679,251.2604)" />
    <path
       sodipodi:type="star"
       style="opacity:0.9;fill:url(#radialGradient56-93)"
       id="path15-69-32-9"
       inkscape:flatsided="false"
       sodipodi:sides="5"
       sodipodi:cx="1481.6664"
       sodipodi:cy="421.70505"
       sodipodi:r1="143.49004"
       sodipodi:r2="71.74501"
       sodipodi:arg1="1.4513674"
       sodipodi:arg2="2.0796859"
       inkscape:rounded="0"
       inkscape:randomized="0"
       d="m 1498.7625,564.17298 -52.0508,-79.81402 -95.2574,-2.36949 59.8231,-74.16722 -27.1826,-91.32732 89.0235,33.97616 78.4576,-54.07389 -4.8035,95.16564 75.672,57.90781 -91.9922,24.83945 z"
       inkscape:transform-center-x="-0.21170894"
       inkscape:transform-center-y="0.33982802"
       transform="matrix(0.04007772,0,0,0.03960765,369.83679,223.2604)" />
    <path
       sodipodi:type="star"
       style="opacity:0.9;fill:url(#radialGradient56-9)"
       id="path15-69-32-8"
       inkscape:flatsided="false"
       sodipodi:sides="5"
       sodipodi:cx="1481.6664"
       sodipodi:cy="421.70505"
       sodipodi:r1="143.49004"
       sodipodi:r2="71.74501"
       sodipodi:arg1="1.4513674"
       sodipodi:arg2="2.0796859"
       inkscape:rounded="0"
       inkscape:randomized="0"
       d="m 1498.7625,564.17298 -52.0508,-79.81402 -95.2574,-2.36949 59.8231,-74.16722 -27.1826,-91.32732 89.0235,33.97616 78.4576,-54.07389 -4.8035,95.16564 75.672,57.90781 -91.9922,24.83945 z"
       inkscape:transform-center-x="-0.21170894"
       inkscape:transform-center-y="0.33982802"
       transform="matrix(0.04007772,0,0,0.03960765,286.83679,373.2604)" />
    <path
       sodipodi:type="star"
       style="opacity:0.9;fill:url(#radialGradient56)"
       id="path15-69-32"
       inkscape:flatsided="false"
       sodipodi:sides="5"
       sodipodi:cx="1481.6664"
       sodipodi:cy="421.70505"
       sodipodi:r1="143.49004"
       sodipodi:r2="71.74501"
       sodipodi:arg1="1.4513674"
       sodipodi:arg2="2.0796859"
       inkscape:rounded="0"
       inkscape:randomized="0"
       d="m 1498.7625,564.17298 -52.0508,-79.81402 -95.2574,-2.36949 59.8231,-74.16722 -27.1826,-91.32732 89.0235,33.97616 78.4576,-54.07389 -4.8035,95.16564 75.672,57.90781 -91.9922,24.83945 z"
       inkscape:transform-center-x="-0.21170894"
       inkscape:transform-center-y="0.33982802"
       transform="matrix(0.04007772,0,0,0.03960765,235.83679,270.2604)" />
    <path
       sodipodi:type="star"
       style="opacity:0.9;fill:#f9f9f9"
       id="path15-69-0"
       inkscape:flatsided="false"
       sodipodi:sides="5"
       sodipodi:cx="1481.6664"
       sodipodi:cy="421.70505"
       sodipodi:r1="143.49004"
       sodipodi:r2="71.74501"
       sodipodi:arg1="1.4513674"
       sodipodi:arg2="2.0796859"
       inkscape:rounded="0"
       inkscape:randomized="0"
       d="m 1498.7625,564.17298 -52.0508,-79.81402 -95.2574,-2.36949 59.8231,-74.16722 -27.1826,-91.32732 89.0235,33.97616 78.4576,-54.07389 -4.8035,95.16564 75.672,57.90781 -91.9922,24.83945 z"
       inkscape:transform-center-x="-0.058479163"
       inkscape:transform-center-y="0.096124111"
       transform="matrix(0.01107051,0,0,0.0112034,304.03871,212.67934)" />
    <path
       sodipodi:type="star"
       style="opacity:0.9;fill:#f9f9f9"
       id="path15-69-97"
       inkscape:flatsided="false"
       sodipodi:sides="5"
       sodipodi:cx="1481.6664"
       sodipodi:cy="421.70505"
       sodipodi:r1="143.49004"
       sodipodi:r2="71.74501"
       sodipodi:arg1="1.4513674"
       sodipodi:arg2="2.0796859"
       inkscape:rounded="0"
       inkscape:randomized="0"
       d="m 1498.7625,564.17298 -52.0508,-79.81402 -95.2574,-2.36949 59.8231,-74.16722 -27.1826,-91.32732 89.0235,33.97616 78.4576,-54.07389 -4.8035,95.16564 75.672,57.90781 -91.9922,24.83945 z"
       inkscape:transform-center-x="-0.058479163"
       inkscape:transform-center-y="0.096124111"
       transform="matrix(0.01107051,0,0,0.0112034,454.03871,117.67934)" />
    <path
       sodipodi:type="star"
       style="opacity:0.9;fill:#f9f9f9"
       id="path15-69-20"
       inkscape:flatsided="false"
       sodipodi:sides="5"
       sodipodi:cx="1481.6664"
       sodipodi:cy="421.70505"
       sodipodi:r1="143.49004"
       sodipodi:r2="71.74501"
       sodipodi:arg1="1.4513674"
       sodipodi:arg2="2.0796859"
       inkscape:rounded="0"
       inkscape:randomized="0"
       d="m 1498.7625,564.17298 -52.0508,-79.81402 -95.2574,-2.36949 59.8231,-74.16722 -27.1826,-91.32732 89.0235,33.97616 78.4576,-54.07389 -4.8035,95.16564 75.672,57.90781 -91.9922,24.83945 z"
       inkscape:transform-center-x="-0.058479163"
       inkscape:transform-center-y="0.096124111"
       transform="matrix(0.01107051,0,0,0.0112034,506.03871,155.67934)" />
    <path
       sodipodi:type="star"
       style="opacity:0.9;fill:#f9f9f9"
       id="path15-69-94"
       inkscape:flatsided="false"
       sodipodi:sides="5"
       sodipodi:cx="1481.6664"
       sodipodi:cy="421.70505"
       sodipodi:r1="143.49004"
       sodipodi:r2="71.74501"
       sodipodi:arg1="1.4513674"
       sodipodi:arg2="2.0796859"
       inkscape:rounded="0"
       inkscape:randomized="0"
       d="m 1498.7625,564.17298 -52.0508,-79.81402 -95.2574,-2.36949 59.8231,-74.16722 -27.1826,-91.32732 89.0235,33.97616 78.4576,-54.07389 -4.8035,95.16564 75.672,57.90781 -91.9922,24.83945 z"
       inkscape:transform-center-x="-0.058479163"
       inkscape:transform-center-y="0.096124111"
       transform="matrix(0.01107051,0,0,0.0112034,598.03871,150.67934)" />
    <path
       sodipodi:type="star"
       style="opacity:0.9;fill:#f9f9f9"
       id="path15-69-58"
       inkscape:flatsided="false"
       sodipodi:sides="5"
       sodipodi:cx="1481.6664"
       sodipodi:cy="421.70505"
       sodipodi:r1="143.49004"
       sodipodi:r2="71.74501"
       sodipodi:arg1="1.4513674"
       sodipodi:arg2="2.0796859"
       inkscape:rounded="0"
       inkscape:randomized="0"
       d="m 1498.7625,564.17298 -52.0508,-79.81402 -95.2574,-2.36949 59.8231,-74.16722 -27.1826,-91.32732 89.0235,33.97616 78.4576,-54.07389 -4.8035,95.16564 75.672,57.90781 -91.9922,24.83945 z"
       inkscape:transform-center-x="-0.058479163"
       inkscape:transform-center-y="0.096124111"
       transform="matrix(0.01107051,0,0,0.0112034,723.03871,68.67934)" />
    <path
       sodipodi:type="star"
       style="opacity:0.9;fill:#f9f9f9"
       id="path15-69-18"
       inkscape:flatsided="false"
       sodipodi:sides="5"
       sodipodi:cx="1481.6664"
       sodipodi:cy="421.70505"
       sodipodi:r1="143.49004"
       sodipodi:r2="71.74501"
       sodipodi:arg1="1.4513674"
       sodipodi:arg2="2.0796859"
       inkscape:rounded="0"
       inkscape:randomized="0"
       d="m 1498.7625,564.17298 -52.0508,-79.81402 -95.2574,-2.36949 59.8231,-74.16722 -27.1826,-91.32732 89.0235,33.97616 78.4576,-54.07389 -4.8035,95.16564 75.672,57.90781 -91.9922,24.83945 z"
       inkscape:transform-center-x="-0.058479163"
       inkscape:transform-center-y="0.096124111"
       transform="matrix(0.01107051,0,0,0.0112034,722.03871,12.67934)" />
    <path
       sodipodi:type="star"
       style="opacity:0.9;fill:#f9f9f9"
       id="path15-69-37"
       inkscape:flatsided="false"
       sodipodi:sides="5"
       sodipodi:cx="1481.6664"
       sodipodi:cy="421.70505"
       sodipodi:r1="143.49004"
       sodipodi:r2="71.74501"
       sodipodi:arg1="1.4513674"
       sodipodi:arg2="2.0796859"
       inkscape:rounded="0"
       inkscape:randomized="0"
       d="m 1498.7625,564.17298 -52.0508,-79.81402 -95.2574,-2.36949 59.8231,-74.16722 -27.1826,-91.32732 89.0235,33.97616 78.4576,-54.07389 -4.8035,95.16564 75.672,57.90781 -91.9922,24.83945 z"
       inkscape:transform-center-x="-0.058479163"
       inkscape:transform-center-y="0.096124111"
       transform="matrix(0.01107051,0,0,0.0112034,640.03871,25.67934)" />
    <path
       sodipodi:type="star"
       style="opacity:0.9;fill:#f9f9f9"
       id="path15-69-1"
       inkscape:flatsided="false"
       sodipodi:sides="5"
       sodipodi:cx="1481.6664"
       sodipodi:cy="421.70505"
       sodipodi:r1="143.49004"
       sodipodi:r2="71.74501"
       sodipodi:arg1="1.4513674"
       sodipodi:arg2="2.0796859"
       inkscape:rounded="0"
       inkscape:randomized="0"
       d="m 1498.7625,564.17298 -52.0508,-79.81402 -95.2574,-2.36949 59.8231,-74.16722 -27.1826,-91.32732 89.0235,33.97616 78.4576,-54.07389 -4.8035,95.16564 75.672,57.90781 -91.9922,24.83945 z"
       inkscape:transform-center-x="-0.058479163"
       inkscape:transform-center-y="0.096124111"
       transform="matrix(0.01107051,0,0,0.0112034,135.03871,25.67934)" />
    <path
       sodipodi:type="star"
       style="opacity:0.9;fill:#f9f9f9"
       id="path15-69-8"
       inkscape:flatsided="false"
       sodipodi:sides="5"
       sodipodi:cx="1481.6664"
       sodipodi:cy="421.70505"
       sodipodi:r1="143.49004"
       sodipodi:r2="71.74501"
       sodipodi:arg1="1.4513674"
       sodipodi:arg2="2.0796859"
       inkscape:rounded="0"
       inkscape:randomized="0"
       d="m 1498.7625,564.17298 -52.0508,-79.81402 -95.2574,-2.36949 59.8231,-74.16722 -27.1826,-91.32732 89.0235,33.97616 78.4576,-54.07389 -4.8035,95.16564 75.672,57.90781 -91.9922,24.83945 z"
       inkscape:transform-center-x="-0.058479163"
       inkscape:transform-center-y="0.096124111"
       transform="matrix(0.01107051,0,0,0.0112034,233.03871,34.67934)" />
    <path
       sodipodi:type="star"
       style="opacity:0.9;fill:#f9f9f9"
       id="path15-69-9"
       inkscape:flatsided="false"
       sodipodi:sides="5"
       sodipodi:cx="1481.6664"
       sodipodi:cy="421.70505"
       sodipodi:r1="143.49004"
       sodipodi:r2="71.74501"
       sodipodi:arg1="1.4513674"
       sodipodi:arg2="2.0796859"
       inkscape:rounded="0"
       inkscape:randomized="0"
       d="m 1498.7625,564.17298 -52.0508,-79.81402 -95.2574,-2.36949 59.8231,-74.16722 -27.1826,-91.32732 89.0235,33.97616 78.4576,-54.07389 -4.8035,95.16564 75.672,57.90781 -91.9922,24.83945 z"
       inkscape:transform-center-x="-0.058479163"
       inkscape:transform-center-y="0.096124111"
       transform="matrix(0.01107051,0,0,0.0112034,48.03871,169.67934)" />
    <path
       sodipodi:type="star"
       style="opacity:0.9;fill:#f9f9f9"
       id="path15-69-5"
       inkscape:flatsided="false"
       sodipodi:sides="5"
       sodipodi:cx="1481.6664"
       sodipodi:cy="421.70505"
       sodipodi:r1="143.49004"
       sodipodi:r2="71.74501"
       sodipodi:arg1="1.4513674"
       sodipodi:arg2="2.0796859"
       inkscape:rounded="0"
       inkscape:randomized="0"
       d="m 1498.7625,564.17298 -52.0508,-79.81402 -95.2574,-2.36949 59.8231,-74.16722 -27.1826,-91.32732 89.0235,33.97616 78.4576,-54.07389 -4.8035,95.16564 75.672,57.90781 -91.9922,24.83945 z"
       inkscape:transform-center-x="-0.058479163"
       inkscape:transform-center-y="0.096124111"
       transform="matrix(0.01107051,0,0,0.0112034,68.03871,72.67934)" />
    <path
       sodipodi:type="star"
       style="opacity:0.9;fill:#f9f9f9"
       id="path15-69-4"
       inkscape:flatsided="false"
       sodipodi:sides="5"
       sodipodi:cx="1481.6664"
       sodipodi:cy="421.70505"
       sodipodi:r1="143.49004"
       sodipodi:r2="71.74501"
       sodipodi:arg1="1.4513674"
       sodipodi:arg2="2.0796859"
       inkscape:rounded="0"
       inkscape:randomized="0"
       d="m 1498.7625,564.17298 -52.0508,-79.81402 -95.2574,-2.36949 59.8231,-74.16722 -27.1826,-91.32732 89.0235,33.97616 78.4576,-54.07389 -4.8035,95.16564 75.672,57.90781 -91.9922,24.83945 z"
       inkscape:transform-center-x="-0.058479163"
       inkscape:transform-center-y="0.096124111"
       transform="matrix(0.01107051,0,0,0.0112034,135.03871,91.67934)" />
    <path
       sodipodi:type="star"
       style="opacity:0.9;fill:#f9f9f9"
       id="path15-69-6"
       inkscape:flatsided="false"
       sodipodi:sides="5"
       sodipodi:cx="1481.6664"
       sodipodi:cy="421.70505"
       sodipodi:r1="143.49004"
       sodipodi:r2="71.74501"
       sodipodi:arg1="1.4513674"
       sodipodi:arg2="2.0796859"
       inkscape:rounded="0"
       inkscape:randomized="0"
       d="m 1498.7625,564.17298 -52.0508,-79.81402 -95.2574,-2.36949 59.8231,-74.16722 -27.1826,-91.32732 89.0235,33.97616 78.4576,-54.07389 -4.8035,95.16564 75.672,57.90781 -91.9922,24.83945 z"
       inkscape:transform-center-x="-0.058479163"
       inkscape:transform-center-y="0.096124111"
       transform="matrix(0.01107051,0,0,0.0112034,218.03871,89.67934)" />
    <path
       sodipodi:type="star"
       style="opacity:0.9;fill:#f9f9f9"
       id="path15-69-2"
       inkscape:flatsided="false"
       sodipodi:sides="5"
       sodipodi:cx="1481.6664"
       sodipodi:cy="421.70505"
       sodipodi:r1="143.49004"
       sodipodi:r2="71.74501"
       sodipodi:arg1="1.4513674"
       sodipodi:arg2="2.0796859"
       inkscape:rounded="0"
       inkscape:randomized="0"
       d="m 1498.7625,564.17298 -52.0508,-79.81402 -95.2574,-2.36949 59.8231,-74.16722 -27.1826,-91.32732 89.0235,33.97616 78.4576,-54.07389 -4.8035,95.16564 75.672,57.90781 -91.9922,24.83945 z"
       inkscape:transform-center-x="-0.058479163"
       inkscape:transform-center-y="0.096124111"
       transform="matrix(0.01107051,0,0,0.0112034,347.03871,43.67934)" />
    <path
       sodipodi:type="star"
       style="opacity:0.9;fill:#f9f9f9"
       id="path15-69-3"
       inkscape:flatsided="false"
       sodipodi:sides="5"
       sodipodi:cx="1481.6664"
       sodipodi:cy="421.70505"
       sodipodi:r1="143.49004"
       sodipodi:r2="71.74501"
       sodipodi:arg1="1.4513674"
       sodipodi:arg2="2.0796859"
       inkscape:rounded="0"
       inkscape:randomized="0"
       d="m 1498.7625,564.17298 -52.0508,-79.81402 -95.2574,-2.36949 59.8231,-74.16722 -27.1826,-91.32732 89.0235,33.97616 78.4576,-54.07389 -4.8035,95.16564 75.672,57.90781 -91.9922,24.83945 z"
       inkscape:transform-center-x="-0.058479163"
       inkscape:transform-center-y="0.096124111"
       transform="matrix(0.01107051,0,0,0.0112034,437.03871,63.67934)" />
    <ellipse
       style="fill:#f9f9f9;stroke-width:0.398888"
       id="path13-4"
       cx="687.46014"
       cy="215.85553"
       rx="5.4601545"
       ry="5.8555269" />
    <ellipse
       style="fill:#f9f9f9;stroke-width:0.398888"
       id="path13-6"
       cx="583.46014"
       cy="59.85553"
       rx="5.4601545"
       ry="5.8555269" />
    <ellipse
       style="fill:#f9f9f9;stroke-width:0.398888"
       id="path13-0"
       cx="330.46014"
       cy="100.85553"
       rx="5.4601545"
       ry="5.8555269" />
    <ellipse
       style="fill:#f9f9f9;stroke-width:0.398888"
       id="path13-3"
       cx="35.460152"
       cy="9.8555279"
       rx="5.4601545"
       ry="5.8555269" />
    <ellipse
       style="fill:#f9f9f9;stroke-width:0.398888"
       id="path13-5"
       cx="674.46014"
       cy="411.85553"
       rx="5.4601545"
       ry="5.8555269" />
    <path
       sodipodi:type="star"
       style="opacity:0.9;fill:#f9f9f9"
       id="path15-58"
       inkscape:flatsided="false"
       sodipodi:sides="5"
       sodipodi:cx="1481.6664"
       sodipodi:cy="421.70505"
       sodipodi:r1="143.49004"
       sodipodi:r2="71.74501"
       sodipodi:arg1="1.4513674"
       sodipodi:arg2="2.0796859"
       inkscape:rounded="0"
       inkscape:randomized="0"
       d="m 1498.7625,564.17298 -52.0508,-79.81402 -95.2574,-2.36949 59.8231,-74.16722 -27.1826,-91.32732 89.0235,33.97616 78.4576,-54.07389 -4.8035,95.16564 75.672,57.90781 -91.9922,24.83945 z"
       inkscape:transform-center-x="-0.058479163"
       inkscape:transform-center-y="0.096124111"
       transform="matrix(0.01107051,0,0,0.0112034,213.03871,469.67935)" />
    <path
       sodipodi:type="star"
       style="opacity:0.9;fill:#f9f9f9"
       id="path15-17"
       inkscape:flatsided="false"
       sodipodi:sides="5"
       sodipodi:cx="1481.6664"
       sodipodi:cy="421.70505"
       sodipodi:r1="143.49004"
       sodipodi:r2="71.74501"
       sodipodi:arg1="1.4513674"
       sodipodi:arg2="2.0796859"
       inkscape:rounded="0"
       inkscape:randomized="0"
       d="m 1498.7625,564.17298 -52.0508,-79.81402 -95.2574,-2.36949 59.8231,-74.16722 -27.1826,-91.32732 89.0235,33.97616 78.4576,-54.07389 -4.8035,95.16564 75.672,57.90781 -91.9922,24.83945 z"
       inkscape:transform-center-x="-0.058479163"
       inkscape:transform-center-y="0.096124111"
       transform="matrix(0.01107051,0,0,0.0112034,644.03871,523.67935)" />
    <path
       sodipodi:type="star"
       style="opacity:0.9;fill:#f9f9f9"
       id="path15-87"
       inkscape:flatsided="false"
       sodipodi:sides="5"
       sodipodi:cx="1481.6664"
       sodipodi:cy="421.70505"
       sodipodi:r1="143.49004"
       sodipodi:r2="71.74501"
       sodipodi:arg1="1.4513674"
       sodipodi:arg2="2.0796859"
       inkscape:rounded="0"
       inkscape:randomized="0"
       d="m 1498.7625,564.17298 -52.0508,-79.81402 -95.2574,-2.36949 59.8231,-74.16722 -27.1826,-91.32732 89.0235,33.97616 78.4576,-54.07389 -4.8035,95.16564 75.672,57.90781 -91.9922,24.83945 z"
       inkscape:transform-center-x="-0.058479163"
       inkscape:transform-center-y="0.096124111"
       transform="matrix(0.01107051,0,0,0.0112034,381.03871,577.67935)" />
    <path
       sodipodi:type="star"
       style="opacity:0.9;fill:#f9f9f9"
       id="path15-9"
       inkscape:flatsided="false"
       sodipodi:sides="5"
       sodipodi:cx="1481.6664"
       sodipodi:cy="421.70505"
       sodipodi:r1="143.49004"
       sodipodi:r2="71.74501"
       sodipodi:arg1="1.4513674"
       sodipodi:arg2="2.0796859"
       inkscape:rounded="0"
       inkscape:randomized="0"
       d="m 1498.7625,564.17298 -52.0508,-79.81402 -95.2574,-2.36949 59.8231,-74.16722 -27.1826,-91.32732 89.0235,33.97616 78.4576,-54.07389 -4.8035,95.16564 75.672,57.90781 -91.9922,24.83945 z"
       inkscape:transform-center-x="-0.058479163"
       inkscape:transform-center-y="0.096124111"
       transform="matrix(0.01107051,0,0,0.0112034,146.03871,595.67935)" />
    <path
       sodipodi:type="star"
       style="opacity:0.9;fill:#f9f9f9"
       id="path15-3"
       inkscape:flatsided="false"
       sodipodi:sides="5"
       sodipodi:cx="1481.6664"
       sodipodi:cy="421.70505"
       sodipodi:r1="143.49004"
       sodipodi:r2="71.74501"
       sodipodi:arg1="1.4513674"
       sodipodi:arg2="2.0796859"
       inkscape:rounded="0"
       inkscape:randomized="0"
       d="m 1498.7625,564.17298 -52.0508,-79.81402 -95.2574,-2.36949 59.8231,-74.16722 -27.1826,-91.32732 89.0235,33.97616 78.4576,-54.07389 -4.8035,95.16564 75.672,57.90781 -91.9922,24.83945 z"
       inkscape:transform-center-x="-0.058479163"
       inkscape:transform-center-y="0.096124111"
       transform="matrix(0.01107051,0,0,0.0112034,482.03871,217.67935)" />
    <path
       sodipodi:type="star"
       style="opacity:0.9;fill:#f9f9f9"
       id="path15-66"
       inkscape:flatsided="false"
       sodipodi:sides="5"
       sodipodi:cx="1481.6664"
       sodipodi:cy="421.70505"
       sodipodi:r1="143.49004"
       sodipodi:r2="71.74501"
       sodipodi:arg1="1.4513674"
       sodipodi:arg2="2.0796859"
       inkscape:rounded="0"
       inkscape:randomized="0"
       d="m 1498.7625,564.17298 -52.0508,-79.81402 -95.2574,-2.36949 59.8231,-74.16722 -27.1826,-91.32732 89.0235,33.97616 78.4576,-54.07389 -4.8035,95.16564 75.672,57.90781 -91.9922,24.83945 z"
       inkscape:transform-center-x="-0.058479163"
       inkscape:transform-center-y="0.096124111"
       transform="matrix(0.01107051,0,0,0.0112034,478.03871,455.67935)" />
    <path
       sodipodi:type="star"
       style="opacity:0.9;fill:#f9f9f9"
       id="path15-1"
       inkscape:flatsided="false"
       sodipodi:sides="5"
       sodipodi:cx="1481.6664"
       sodipodi:cy="421.70505"
       sodipodi:r1="143.49004"
       sodipodi:r2="71.74501"
       sodipodi:arg1="1.4513674"
       sodipodi:arg2="2.0796859"
       inkscape:rounded="0"
       inkscape:randomized="0"
       d="m 1498.7625,564.17298 -52.0508,-79.81402 -95.2574,-2.36949 59.8231,-74.16722 -27.1826,-91.32732 89.0235,33.97616 78.4576,-54.07389 -4.8035,95.16564 75.672,57.90781 -91.9922,24.83945 z"
       inkscape:transform-center-x="-0.058479163"
       inkscape:transform-center-y="0.096124111"
       transform="matrix(0.01107051,0,0,0.0112034,259.03871,151.67934)" />
    <path
       sodipodi:type="star"
       style="opacity:0.9;fill:#f9f9f9"
       id="path15-4"
       inkscape:flatsided="false"
       sodipodi:sides="5"
       sodipodi:cx="1481.6664"
       sodipodi:cy="421.70505"
       sodipodi:r1="143.49004"
       sodipodi:r2="71.74501"
       sodipodi:arg1="1.4513674"
       sodipodi:arg2="2.0796859"
       inkscape:rounded="0"
       inkscape:randomized="0"
       d="m 1498.7625,564.17298 -52.0508,-79.81402 -95.2574,-2.36949 59.8231,-74.16722 -27.1826,-91.32732 89.0235,33.97616 78.4576,-54.07389 -4.8035,95.16564 75.672,57.90781 -91.9922,24.83945 z"
       inkscape:transform-center-x="-0.058479163"
       inkscape:transform-center-y="0.096124111"
       transform="matrix(0.01107051,0,0,0.0112034,120.03871,149.67934)" />
    <path
       sodipodi:type="star"
       style="opacity:0.9;fill:#f9f9f9"
       id="path15-59"
       inkscape:flatsided="false"
       sodipodi:sides="5"
       sodipodi:cx="1481.6664"
       sodipodi:cy="421.70505"
       sodipodi:r1="143.49004"
       sodipodi:r2="71.74501"
       sodipodi:arg1="1.4513674"
       sodipodi:arg2="2.0796859"
       inkscape:rounded="0"
       inkscape:randomized="0"
       d="m 1498.7625,564.17298 -52.0508,-79.81402 -95.2574,-2.36949 59.8231,-74.16722 -27.1826,-91.32732 89.0235,33.97616 78.4576,-54.07389 -4.8035,95.16564 75.672,57.90781 -91.9922,24.83945 z"
       inkscape:transform-center-x="-0.058479163"
       inkscape:transform-center-y="0.096124111"
       transform="matrix(0.01107051,0,0,0.0112034,452.03871,175.67935)" />
    <path
       sodipodi:type="star"
       style="opacity:0.9;fill:#f9f9f9"
       id="path15-5"
       inkscape:flatsided="false"
       sodipodi:sides="5"
       sodipodi:cx="1481.6664"
       sodipodi:cy="421.70505"
       sodipodi:r1="143.49004"
       sodipodi:r2="71.74501"
       sodipodi:arg1="1.4513674"
       sodipodi:arg2="2.0796859"
       inkscape:rounded="0"
       inkscape:randomized="0"
       d="m 1498.7625,564.17298 -52.0508,-79.81402 -95.2574,-2.36949 59.8231,-74.16722 -27.1826,-91.32732 89.0235,33.97616 78.4576,-54.07389 -4.8035,95.16564 75.672,57.90781 -91.9922,24.83945 z"
       inkscape:transform-center-x="-0.058479163"
       inkscape:transform-center-y="0.096124111"
       transform="matrix(0.01107051,0,0,0.0112034,172.03871,358.67935)" />
    <path
       sodipodi:type="star"
       style="opacity:0.9;fill:#f9f9f9"
       id="path15-69"
       inkscape:flatsided="false"
       sodipodi:sides="5"
       sodipodi:cx="1481.6664"
       sodipodi:cy="421.70505"
       sodipodi:r1="143.49004"
       sodipodi:r2="71.74501"
       sodipodi:arg1="1.4513674"
       sodipodi:arg2="2.0796859"
       inkscape:rounded="0"
       inkscape:randomized="0"
       d="m 1498.7625,564.17298 -52.0508,-79.81402 -95.2574,-2.36949 59.8231,-74.16722 -27.1826,-91.32732 89.0235,33.97616 78.4576,-54.07389 -4.8035,95.16564 75.672,57.90781 -91.9922,24.83945 z"
       inkscape:transform-center-x="-0.058479163"
       inkscape:transform-center-y="0.096124111"
       transform="matrix(0.01107051,0,0,0.0112034,588.03871,312.67935)" />
    <path
       sodipodi:type="star"
       style="opacity:0.9;fill:#f9f9f9"
       id="path15-7"
       inkscape:flatsided="false"
       sodipodi:sides="5"
       sodipodi:cx="1481.6664"
       sodipodi:cy="421.70505"
       sodipodi:r1="143.49004"
       sodipodi:r2="71.74501"
       sodipodi:arg1="1.4513674"
       sodipodi:arg2="2.0796859"
       inkscape:rounded="0"
       inkscape:randomized="0"
       d="m 1498.7625,564.17298 -52.0508,-79.81402 -95.2574,-2.36949 59.8231,-74.16722 -27.1826,-91.32732 89.0235,33.97616 78.4576,-54.07389 -4.8035,95.16564 75.672,57.90781 -91.9922,24.83945 z"
       inkscape:transform-center-x="-0.058479163"
       inkscape:transform-center-y="0.096124111"
       transform="matrix(0.01107051,0,0,0.0112034,436.03871,436.67935)" />
    <path
       sodipodi:type="star"
       style="opacity:0.9;fill:#f9f9f9"
       id="path15-8"
       inkscape:flatsided="false"
       sodipodi:sides="5"
       sodipodi:cx="1481.6664"
       sodipodi:cy="421.70505"
       sodipodi:r1="143.49004"
       sodipodi:r2="71.74501"
       sodipodi:arg1="1.4513674"
       sodipodi:arg2="2.0796859"
       inkscape:rounded="0"
       inkscape:randomized="0"
       d="m 1498.7625,564.17298 -52.0508,-79.81402 -95.2574,-2.36949 59.8231,-74.16722 -27.1826,-91.32732 89.0235,33.97616 78.4576,-54.07389 -4.8035,95.16564 75.672,57.90781 -91.9922,24.83945 z"
       inkscape:transform-center-x="-0.058479163"
       inkscape:transform-center-y="0.096124111"
       transform="matrix(0.01107051,0,0,0.0112034,192.03871,440.67935)" />
    <path
       sodipodi:type="star"
       style="opacity:0.9;fill:#f9f9f9"
       id="path15-6"
       inkscape:flatsided="false"
       sodipodi:sides="5"
       sodipodi:cx="1481.6664"
       sodipodi:cy="421.70505"
       sodipodi:r1="143.49004"
       sodipodi:r2="71.74501"
       sodipodi:arg1="1.4513674"
       sodipodi:arg2="2.0796859"
       inkscape:rounded="0"
       inkscape:randomized="0"
       d="m 1498.7625,564.17298 -52.0508,-79.81402 -95.2574,-2.36949 59.8231,-74.16722 -27.1826,-91.32732 89.0235,33.97616 78.4576,-54.07389 -4.8035,95.16564 75.672,57.90781 -91.9922,24.83945 z"
       inkscape:transform-center-x="-0.058479163"
       inkscape:transform-center-y="0.096124111"
       transform="matrix(0.01107051,0,0,0.0112034,407.03871,302.67935)" />
    <ellipse
       style="fill:#f9f9f9;stroke-width:0.398888"
       id="path13"
       cx="156.47615"
       cy="202.46126"
       rx="5.4601545"
       ry="5.8555269" />
    <path
       sodipodi:type="star"
       style="opacity:0.9;fill:url(#radialGradient56-41)"
       id="path15-69-32-99"
       inkscape:flatsided="false"
       sodipodi:sides="5"
       sodipodi:cx="1481.6664"
       sodipodi:cy="421.70505"
       sodipodi:r1="143.49004"
       sodipodi:r2="71.74501"
       sodipodi:arg1="1.4513674"
       sodipodi:arg2="2.0796859"
       inkscape:rounded="0"
       inkscape:randomized="0"
       d="m 1498.7625,564.17298 -52.0508,-79.81402 -95.2574,-2.36949 59.8231,-74.16722 -27.1826,-91.32732 89.0235,33.97616 78.4576,-54.07389 -4.8035,95.16564 75.672,57.90781 -91.9922,24.83945 z"
       inkscape:transform-center-x="-0.21170894"
       inkscape:transform-center-y="0.33982802"
       transform="matrix(0.04007772,0,0,0.03960765,99.83679,190.2604)" />
    <ellipse
       style="fill:#f9f9f9"
       id="path14"
       cx="1334.9244"
       cy="226.524"
       rx="84.056076"
       ry="75.508003" />
    <path
       sodipodi:type="star"
       style="opacity:0.9;fill:#f9f9f9"
       id="path15"
       inkscape:flatsided="false"
       sodipodi:sides="5"
       sodipodi:cx="1481.6664"
       sodipodi:cy="421.70505"
       sodipodi:r1="143.49004"
       sodipodi:r2="71.74501"
       sodipodi:arg1="1.4513674"
       sodipodi:arg2="2.0796859"
       inkscape:rounded="0"
       inkscape:randomized="0"
       d="m 1498.7625,564.17298 -52.0508,-79.81402 -95.2574,-2.36949 59.8231,-74.16722 -27.1826,-91.32732 89.0235,33.97616 78.4576,-54.07389 -4.8035,95.16564 75.672,57.90781 -91.9922,24.83945 z"
       inkscape:transform-center-x="-0.058479163"
       inkscape:transform-center-y="0.096124111"
       transform="matrix(0.01107051,0,0,0.0112034,655.14229,55.135277)" />
  </g>
</svg>
